<svg xmlns="http://www.w3.org/2000/svg" height="58.425" width="82.076"><g transform="translate(151.19 214.286)"><path fill="#fff" d="M-1-1h582v402H-1z"/></g><g stroke-linecap="undefined" stroke-linejoin="undefined" stroke-width="5" stroke="#000" fill="none"><path transform="matrix(0 -1 1.00002 0 -74.37 139.933)" d="M110.899 128.5l-.12 23"/><path stroke-opacity="null" d="M113.856 128.512l13.2 13.2" transform="matrix(-1.00002 0 0 -1 176.473 169.094)"/><path transform="matrix(0 -1 1.00002 0 -88.757 144.78)" stroke-opacity="null" d="M113.856 138.169l13.2 13.201"/><path d="M31.929 0v58.425" transform="matrix(1.00002 0 0 1 47.647 0)"/></g><g stroke-linecap="undefined" stroke-linejoin="undefined" stroke-width="5" stroke="#000" fill="none"><path d="M27.922 29.272l-23-.119"/><path stroke-opacity="null" d="M19.439 17.724l13.2 13.201M32.64 27.382l-13.2 13.2"/><path d="M2.5 0v58.425"/></g></svg>